<?xml version="1.0" standalone="no"?>
<!DOCTYPE svg PUBLIC "-//W3C//DTD SVG 20010904//EN"
 "http://www.w3.org/TR/2001/REC-SVG-20010904/DTD/svg10.dtd">
<svg version="1.0" xmlns="http://www.w3.org/2000/svg"
 width="512.000000pt" height="512.000000pt" viewBox="0 0 512.000000 512.000000"
 preserveAspectRatio="xMidYMid meet">
<metadata>
Created by potrace 1.14, written by Peter Selinger 2001-2017
</metadata>
<g transform="translate(0.000000,512.000000) scale(0.100000,-0.100000)"
fill="#000000" stroke="none">
<path d="M2371 5094 c-83 -38 -141 -125 -141 -211 0 -58 33 -95 82 -89 36 4
78 45 78 76 0 55 53 99 105 86 28 -7 65 -43 66 -65 1 -9 2 -401 3 -871 1 -470
6 -862 10 -872 13 -28 64 -43 99 -30 28 11 35 8 94 -34 190 -135 315 -266 361
-376 33 -78 28 -130 -27 -299 -85 -260 -100 -386 -61 -511 35 -113 55 -127
228 -163 12 -3 30 -7 40 -9 9 -3 78 -16 152 -31 249 -48 481 -120 538 -166 38
-30 71 -86 77 -131 2 -18 -16 -134 -42 -258 l-45 -225 -92 2 c-50 1 -95 2 -99
2 -4 1 -6 18 -3 39 7 46 12 86 22 177 18 159 11 166 -171 180 -38 3 -97 8
-130 11 -33 2 -174 6 -313 9 -274 4 -301 6 -407 37 -139 40 -200 88 -244 190
-33 78 -47 246 -22 271 4 4 71 0 149 -9 130 -16 143 -16 166 -1 26 17 41 64
31 96 -9 29 -44 47 -105 55 -30 3 -71 8 -90 11 -19 2 -55 7 -80 10 -24 4 -45
7 -46 8 -2 2 -12 79 -19 157 -12 129 -25 157 -71 161 -86 8 -108 -36 -89 -184
2 -15 6 -59 10 -96 l6 -68 -103 -74 c-57 -40 -143 -107 -193 -149 -72 -60
-285 -239 -610 -511 -11 -10 -45 -38 -75 -64 -30 -25 -176 -127 -325 -227
-148 -99 -282 -192 -298 -206 -34 -33 -64 -94 -71 -151 -6 -49 11 -108 92
-308 l49 -123 -402 0 -402 0 -28 -26 c-23 -21 -27 -31 -22 -61 4 -20 13 -44
22 -52 14 -14 260 -16 2518 -19 1376 -1 2512 0 2524 3 31 7 56 59 48 96 -13
58 -17 59 -385 59 l-336 0 -13 36 c-17 46 -73 108 -125 139 -23 13 -76 33
-119 43 -43 11 -81 23 -84 26 -5 4 13 106 32 186 4 16 35 163 41 195 2 11 8
43 14 70 5 28 11 59 14 70 2 11 9 40 15 65 5 25 13 61 16 80 5 30 26 134 41
205 29 137 -12 273 -112 365 -50 46 -82 61 -234 113 -130 44 -181 57 -400 102
-266 54 -279 58 -286 74 -4 9 -8 54 -10 101 -3 92 11 155 82 365 29 88 37 128
39 200 4 103 -11 158 -66 252 -37 63 -215 248 -291 302 -51 36 -59 51 -30 51
67 1 176 96 207 181 17 48 19 79 19 294 -1 272 -8 312 -73 412 -66 102 -183
181 -296 200 l-50 8 0 300 c-1 357 -4 375 -80 451 -39 39 -62 54 -101 63 -65
16 -117 11 -173 -15z m444 -988 c28 -13 63 -37 78 -53 l28 -30 -42 -37 c-41
-38 -110 -75 -139 -76 -13 0 -15 18 -15 110 0 127 1 128 90 86z m169 -461 l-1
-204 -27 -35 c-38 -51 -115 -69 -197 -46 l-35 10 0 184 1 184 71 21 c39 11 93
36 120 55 27 19 54 34 59 35 7 1 10 -67 9 -204z m-626 -1948 c7 -121 66 -266
142 -343 l40 -42 -307 -136 c-170 -75 -389 -176 -488 -225 l-180 -87 -32 84
c-18 46 -33 87 -33 90 1 4 23 24 49 45 27 21 57 46 68 55 26 24 82 71 139 117
27 22 67 56 89 76 95 84 501 419 508 419 1 0 3 -24 5 -53z m480 -502 c51 -11
148 -17 325 -19 223 -4 412 -13 457 -21 8 -2 20 -4 27 -4 6 -1 10 -9 8 -19 -2
-11 -6 -43 -10 -73 -3 -30 -8 -70 -10 -89 -2 -19 -7 -60 -10 -90 -3 -30 -8
-71 -10 -90 -4 -33 -7 -55 -20 -180 -12 -112 -27 -207 -42 -265 -17 -67 -20
-104 -9 -153 l8 -32 -1123 2 -1123 3 -7 35 c-4 19 -11 55 -14 80 -3 24 -13 78
-20 119 -12 60 -12 78 -2 87 6 6 80 54 162 107 146 92 371 210 572 301 54 24
133 60 176 80 43 20 80 36 82 36 2 0 36 15 77 34 40 18 97 44 127 57 30 13
100 45 155 71 65 31 110 46 126 43 14 -2 58 -11 98 -20z m-1445 -329 c15 -40
27 -77 27 -82 0 -5 -16 -18 -35 -29 -115 -64 -285 -182 -295 -203 -11 -24 -1
-107 36 -289 20 -104 20 -106 -18 -98 -45 10 -95 49 -117 93 -10 20 -42 99
-70 175 -51 135 -51 138 -36 170 12 24 72 69 243 184 125 83 229 152 232 152
3 0 17 -32 33 -73z m2554 -146 c-3 -19 -21 -111 -40 -205 -19 -93 -35 -178
-34 -187 1 -36 44 -59 163 -89 120 -31 174 -52 174 -69 0 -15 -432 -13 -465 2
-47 21 -55 53 -34 138 15 65 29 153 43 280 11 95 19 156 22 161 2 3 42 6 89 5
l86 0 -4 -36z"/>
<path d="M2098 4855 c-18 -10 -29 -26 -34 -50 -7 -40 1 -55 71 -129 69 -73 86
-114 91 -217 l5 -89 -56 -26 c-83 -39 -124 -92 -163 -210 -38 -116 -43 -154
-26 -212 25 -86 111 -163 198 -176 l44 -7 0 -301 1 -301 31 -64 c17 -35 33
-80 36 -101 13 -121 15 -127 40 -149 61 -55 139 -1 128 87 -7 59 -12 104 -13
136 0 17 -15 51 -31 76 l-30 46 -1 674 c0 704 -2 737 -44 818 -32 63 -131 177
-172 198 -28 15 -42 15 -75 -3z m132 -810 c0 -159 -3 -164 -54 -124 -39 31
-46 56 -29 114 20 65 62 155 74 155 5 0 9 -63 9 -145z"/>
<path d="M2358 2609 c-30 -38 -26 -81 10 -109 81 -64 171 42 100 117 -32 34
-80 31 -110 -8z"/>
</g>
</svg>
